<svg width="60" height="60" viewBox="0 0 60 60" fill="none" xmlns="http://www.w3.org/2000/svg">
<path d="M30 0C13.433 0 0 13.433 0 30C0 46.567 13.433 60 30 60C46.567 60 60 46.567 60 30C60 13.433 46.567 0 30 0ZM30 54.9107C16.2455 54.9107 5.08929 43.7545 5.08929 30C5.08929 16.2455 16.2455 5.08929 30 5.08929C43.7545 5.08929 54.9107 16.2455 54.9107 30C54.9107 43.7545 43.7545 54.9107 30 54.9107Z" fill="url(#paint0_linear)"/>
<path d="M35.8188 30.3336C34.9904 30.3336 34.3188 31.0051 34.3188 31.8336C34.3188 32.662 34.9904 33.3336 35.8188 33.3336H35.8318C36.6602 33.3336 37.3318 32.662 37.3318 31.8336C37.3318 31.0051 36.6602 30.3336 35.8318 30.3336H35.8188Z" fill="url(#paint1_linear)"/>
<path d="M28.1067 31.8336C28.1067 31.0051 28.7783 30.3336 29.6067 30.3336H29.6197C30.4481 30.3336 31.1197 31.0051 31.1197 31.8336C31.1197 32.662 30.4481 33.3336 29.6197 33.3336H29.6067C28.7783 33.3336 28.1067 32.662 28.1067 31.8336Z" fill="url(#paint2_linear)"/>
<path d="M23.3813 30.3336C22.5529 30.3336 21.8813 31.0051 21.8813 31.8336C21.8813 32.662 22.5529 33.3336 23.3813 33.3336H23.3943C24.2227 33.3336 24.8943 32.662 24.8943 31.8336C24.8943 31.0051 24.2227 30.3336 23.3943 30.3336H23.3813Z" fill="url(#paint3_linear)"/>
<path d="M34.3188 37.2747C34.3188 36.4463 34.9904 35.7747 35.8188 35.7747H35.8318C36.6602 35.7747 37.3318 36.4463 37.3318 37.2747C37.3318 38.1031 36.6602 38.7747 35.8318 38.7747H35.8188C34.9904 38.7747 34.3188 38.1031 34.3188 37.2747Z" fill="url(#paint4_linear)"/>
<path d="M29.6067 35.7747C28.7783 35.7747 28.1067 36.4463 28.1067 37.2747C28.1067 38.1031 28.7783 38.7747 29.6067 38.7747H29.6197C30.4481 38.7747 31.1197 38.1031 31.1197 37.2747C31.1197 36.4463 30.4481 35.7747 29.6197 35.7747H29.6067Z" fill="url(#paint5_linear)"/>
<path d="M21.8813 37.2747C21.8813 36.4463 22.5529 35.7747 23.3813 35.7747H23.3943C24.2227 35.7747 24.8943 36.4463 24.8943 37.2747C24.8943 38.1031 24.2227 38.7747 23.3943 38.7747H23.3813C22.5529 38.7747 21.8813 38.1031 21.8813 37.2747Z" fill="url(#paint6_linear)"/>
<path fill-rule="evenodd" clip-rule="evenodd" d="M36.7612 16C36.7612 15.1716 36.0897 14.5 35.2612 14.5C34.4328 14.5 33.7612 15.1716 33.7612 16V16.7109H25.4517V16C25.4517 15.1716 24.7801 14.5 23.9517 14.5C23.1232 14.5 22.4517 15.1716 22.4517 16V16.7746C20.6244 16.9699 19.0015 17.6191 17.7644 18.7951C16.2449 20.2395 15.5 22.2956 15.5 24.7111V37.3806C15.5 39.8221 16.2403 41.9039 17.754 43.371C19.2601 44.8308 21.3445 45.5 23.6793 45.5H35.5206C37.8542 45.5 39.9364 44.8452 41.4428 43.4069C42.9597 41.9585 43.7 39.8997 43.7 37.4865V24.7132C43.7069 22.2999 42.9703 20.2428 41.4532 18.7966C40.2173 17.6183 38.5927 16.9692 36.7612 16.7743V16ZM33.7612 19.7109V20.6071C33.7612 21.4355 34.4328 22.1071 35.2612 22.1071C36.0897 22.1071 36.7612 21.4355 36.7612 20.6071V19.7974C37.9178 19.9707 38.7806 20.3934 39.3833 20.968C40.171 21.7189 40.7055 22.9109 40.7 24.7065L40.7 24.7111V24.866H18.5V24.7111C18.5 22.9167 19.0391 21.7226 19.8314 20.9694C20.4367 20.394 21.2999 19.9716 22.4517 19.798V20.6071C22.4517 21.4355 23.1232 22.1071 23.9517 22.1071C24.7801 22.1071 25.4517 21.4355 25.4517 20.6071V19.7109H33.7612ZM18.5 27.866V37.3806C18.5 39.2152 19.0437 40.4431 19.8419 41.2167C20.6475 41.9976 21.9029 42.5 23.6793 42.5H35.5206C37.3114 42.5 38.5688 42.003 39.371 41.2371C40.1627 40.4812 40.7 39.2833 40.7 37.4865V27.866H18.5Z" fill="url(#paint7_linear)"/>
<defs>
<linearGradient id="paint0_linear" x1="91.5" y1="30" x2="30.3" y2="-30.6" gradientUnits="userSpaceOnUse">
<stop stop-color="#6758F3"/>
<stop offset="1" stop-color="#E062F5"/>
</linearGradient>
<linearGradient id="paint1_linear" x1="58.505" y1="30" x2="27.0554" y2="1.67149" gradientUnits="userSpaceOnUse">
<stop stop-color="#6758F3"/>
<stop offset="1" stop-color="#E062F5"/>
</linearGradient>
<linearGradient id="paint2_linear" x1="58.505" y1="30" x2="27.0554" y2="1.67149" gradientUnits="userSpaceOnUse">
<stop stop-color="#6758F3"/>
<stop offset="1" stop-color="#E062F5"/>
</linearGradient>
<linearGradient id="paint3_linear" x1="58.505" y1="30" x2="27.0554" y2="1.67149" gradientUnits="userSpaceOnUse">
<stop stop-color="#6758F3"/>
<stop offset="1" stop-color="#E062F5"/>
</linearGradient>
<linearGradient id="paint4_linear" x1="58.505" y1="30" x2="27.0554" y2="1.67149" gradientUnits="userSpaceOnUse">
<stop stop-color="#6758F3"/>
<stop offset="1" stop-color="#E062F5"/>
</linearGradient>
<linearGradient id="paint5_linear" x1="58.505" y1="30" x2="27.0554" y2="1.67149" gradientUnits="userSpaceOnUse">
<stop stop-color="#6758F3"/>
<stop offset="1" stop-color="#E062F5"/>
</linearGradient>
<linearGradient id="paint6_linear" x1="58.505" y1="30" x2="27.0554" y2="1.67149" gradientUnits="userSpaceOnUse">
<stop stop-color="#6758F3"/>
<stop offset="1" stop-color="#E062F5"/>
</linearGradient>
<linearGradient id="paint7_linear" x1="58.505" y1="30" x2="27.0554" y2="1.67149" gradientUnits="userSpaceOnUse">
<stop stop-color="#6758F3"/>
<stop offset="1" stop-color="#E062F5"/>
</linearGradient>
</defs>
</svg>
