<svg width="60" height="60" viewBox="0 0 60 60" fill="none" xmlns="http://www.w3.org/2000/svg">
<path d="M39.0789 34.2423C40.2521 35.4112 41.1868 36.7971 41.8309 38.3228C42.4661 39.822 42.8041 41.4102 42.8383 43.042C42.8399 43.1108 42.8277 43.1792 42.8026 43.2432L42.5699 43.1518L42.8026 43.2432C42.7774 43.3075 42.7395 43.3661 42.6912 43.4156C42.6912 43.4156 42.6912 43.4156 42.6912 43.4156L39.0789 34.2423ZM39.0789 34.2423C39.0788 34.2422 39.0787 34.2422 39.0786 34.2421C39.0787 34.2422 39.0788 34.2422 39.0789 34.2423ZM17.1598 43.0418C17.1912 41.4199 17.5332 39.819 18.1673 38.3258C18.8127 36.8008 19.7472 35.4152 20.9193 34.2455L17.1598 43.041C17.1598 43.0413 17.1598 43.0416 17.1598 43.0418ZM17.1598 43.0418C17.1582 43.1107 17.1703 43.1791 17.1955 43.2432L17.4281 43.1519L17.1955 43.2432C17.2207 43.3075 17.2586 43.3661 17.3069 43.4156C17.3551 43.4651 17.4128 43.5044 17.4765 43.5312C17.5401 43.558 17.6085 43.5718 17.6776 43.5718C17.6776 43.5718 17.6777 43.5718 17.6777 43.5718H19.6865C19.9708 43.5718 20.1975 43.3453 20.2043 43.0671C20.2696 40.5464 21.2814 38.1866 23.0709 36.397C24.9225 34.5455 27.3801 33.5272 29.999 33.5272C32.618 33.5272 35.0756 34.5455 36.9272 36.397C38.7166 38.1865 39.7284 40.5461 39.7938 43.0667L17.1598 43.0418ZM29.999 30.4825C28.5286 30.4825 27.1457 29.9096 26.1044 28.8683C25.0631 27.8269 24.4901 26.4441 24.4901 24.9736C24.4901 23.5032 25.063 22.1203 26.1044 21.079C27.1457 20.0376 28.5286 19.4647 29.999 19.4647C31.4695 19.4647 32.8524 20.0376 33.8937 21.079C34.935 22.1203 35.508 23.5032 35.508 24.9736C35.508 26.4441 34.935 27.8269 33.8937 28.8683C32.8524 29.9096 31.4695 30.4825 29.999 30.4825Z" fill="url(#paint0_linear)" stroke="url(#paint1_linear)" stroke-width="0.5"/>
<path d="M30 0C13.433 0 0 13.433 0 30C0 46.567 13.433 60 30 60C46.567 60 60 46.567 60 30C60 13.433 46.567 0 30 0ZM30 54.9107C16.2455 54.9107 5.08929 43.7545 5.08929 30C5.08929 16.2455 16.2455 5.08929 30 5.08929C43.7545 5.08929 54.9107 16.2455 54.9107 30C54.9107 43.7545 43.7545 54.9107 30 54.9107Z" fill="url(#paint2_linear)"/>
<defs>
<linearGradient id="paint0_linear" x1="55.8072" y1="29.9959" x2="28.6815" y2="4.62065" gradientUnits="userSpaceOnUse">
<stop stop-color="#6758F3"/>
<stop offset="1" stop-color="#E062F5"/>
</linearGradient>
<linearGradient id="paint1_linear" x1="55.8072" y1="29.9959" x2="28.6815" y2="4.62065" gradientUnits="userSpaceOnUse">
<stop stop-color="#6758F3"/>
<stop offset="1" stop-color="#E062F5"/>
</linearGradient>
<linearGradient id="paint2_linear" x1="91.5" y1="30" x2="30.3" y2="-30.6" gradientUnits="userSpaceOnUse">
<stop stop-color="#6758F3"/>
<stop offset="1" stop-color="#E062F5"/>
</linearGradient>
</defs>
</svg>
